<svg xmlns="http://www.w3.org/2000/svg" width="30" height="30">
  <defs>
    <linearGradient id="linear-gradient" x1=".5" x2=".5" y1="-.119" y2="1.08" gradientUnits="objectBoundingBox">
      <stop offset="0" stop-color="#364898"/>
      <stop offset=".372" stop-color="#e11a70"/>
      <stop offset=".717" stop-color="#e72634"/>
      <stop offset="1" stop-color="#edba59"/>
    </linearGradient>
    <style>
      .cls-1{fill:url(#linear-gradient)}
    </style>
  </defs>
  <g id="iconfinder_Instagram_glyph_svg_5335781" transform="translate(0 -.162)">
    <path id="패스_1103" d="M15 .162c-4.074 0-4.585.017-6.185.09a11.01 11.01 0 00-3.641.7 7.353 7.353 0 00-2.657 1.73 7.353 7.353 0 00-1.73 2.654 11.01 11.01 0 00-.7 3.641C.017 10.577 0 11.088 0 15.162s.017 4.585.09 6.184a11.01 11.01 0 00.7 3.641 7.353 7.353 0 001.73 2.657 7.353 7.353 0 002.657 1.73 11.011 11.011 0 003.641.7c1.6.073 2.111.09 6.185.09s4.585-.017 6.184-.09a11.01 11.01 0 003.641-.7 7.67 7.67 0 004.387-4.387 11.01 11.01 0 00.7-3.641c.073-1.6.09-2.111.09-6.184s-.017-4.585-.09-6.185a11.01 11.01 0 00-.7-3.641 7.353 7.353 0 00-1.73-2.657 7.353 7.353 0 00-2.659-1.73 11.01 11.01 0 00-3.641-.7C19.585.179 19.074.162 15 .162zm0 2.7c4.005 0 4.48.015 6.061.087a8.3 8.3 0 012.785.516 4.648 4.648 0 011.725 1.125 4.647 4.647 0 011.122 1.725A8.3 8.3 0 0127.21 9.1c.072 1.582.087 2.056.087 6.061s-.015 4.48-.087 6.061a8.3 8.3 0 01-.516 2.785 4.968 4.968 0 01-2.847 2.847 8.3 8.3 0 01-2.785.516c-1.581.072-2.056.087-6.061.087s-4.48-.015-6.061-.087a8.3 8.3 0 01-2.785-.516 4.647 4.647 0 01-1.725-1.122 4.647 4.647 0 01-1.122-1.725 8.3 8.3 0 01-.517-2.785c-.072-1.582-.087-2.056-.087-6.061s.015-4.48.087-6.061a8.3 8.3 0 01.517-2.785A4.647 4.647 0 014.429 4.59a4.648 4.648 0 011.724-1.122 8.3 8.3 0 012.785-.516c1.582-.072 2.057-.088 6.062-.088z" class="cls-1"/>
    <path id="패스_1104" d="M132.243 137.4a5 5 0 115-5 5 5 0 01-5 5zm0-12.7a7.7 7.7 0 107.7 7.7 7.7 7.7 0 00-7.7-7.7z" class="cls-1" transform="translate(-117.243 -117.243)"/>
    <path id="패스_1105" d="M365.532 90.589a1.8 1.8 0 11-1.8-1.8 1.8 1.8 0 011.8 1.8z" class="cls-1" transform="translate(-340.725 -83.434)"/>
  </g>
</svg>
