<svg xmlns="http://www.w3.org/2000/svg" width="30" height="30">
  <path fill="#2a4c88" d="M30 23.268A6.733 6.733 0 0123.268 30H6.732A6.737 6.737 0 010 23.268V6.732A6.737 6.737 0 016.732 0h16.536A6.737 6.737 0 0130 6.732z"/>
  <path fill="#fff" fill-rule="evenodd" d="M17.52 9.65c.5-.018 1.008-.006 1.512-.006h.205V7.025c-.27-.029-.551-.064-.832-.076-.516-.023-1.031-.047-1.553-.035a3.821 3.821 0 00-2.186.674 3.255 3.255 0 00-1.312 2.186 8.019 8.019 0 00-.094 1.125c-.012.586 0 1.172 0 1.764v.223h-2.5v2.924h2.49v7.348h3.041v-7.344h2.484c.129-.973.252-1.934.381-2.936h-.557c-.709.006-2.326 0-2.326 0s.006-1.447.023-2.08c.023-.861.538-1.124 1.224-1.148z"/>
</svg>
