<svg xmlns="http://www.w3.org/2000/svg" width="30" height="30">
  <path fill="#009adb" d="M30 23.268A6.733 6.733 0 0123.268 30H6.732A6.737 6.737 0 010 23.268V6.732A6.737 6.737 0 016.732 0h16.536A6.737 6.737 0 0130 6.732z"/>
  <path fill="#fff" fill-rule="evenodd" d="M12.199 18.81a3.425 3.425 0 01-3.176-2.367 3.342 3.342 0 001.465-.047c.012 0 .023-.012.047-.023a3.409 3.409 0 01-2.215-1.564 3.327 3.327 0 01-.5-1.816 3.385 3.385 0 001.518.416 3.45 3.45 0 01-1.406-2.068 3.379 3.379 0 01.363-2.473 9.749 9.749 0 007.037 3.563c-.018-.135-.041-.252-.053-.375a3.322 3.322 0 01.5-2.232 3.276 3.276 0 012.314-1.541 3.336 3.336 0 012.988.949.175.175 0 00.182.053 6.937 6.937 0 001.986-.762c.018-.006.029-.018.047-.023h.023a3.506 3.506 0 01-1.459 1.857 6.464 6.464 0 001.9-.51c.006.006.012.012.012.018-.129.17-.258.346-.393.51a6.76 6.76 0 01-1.242 1.178.118.118 0 00-.059.105 9.4 9.4 0 01-.064 1.518 10.147 10.147 0 01-.879 3.035 9.854 9.854 0 01-1.846 2.689 9.15 9.15 0 01-4.687 2.613 10.91 10.91 0 01-1.9.229 9.654 9.654 0 01-5.461-1.465c-.023-.012-.041-.029-.082-.053a6.89 6.89 0 003.41-.469 6.485 6.485 0 001.63-.945z"/>
</svg>
